<?xml version="1.0" encoding="utf-8" ?>
<svg baseProfile="full" height="512px" version="1.1" width="512px" xmlns="http://www.w3.org/2000/svg" xmlns:ev="http://www.w3.org/2001/xml-events" xmlns:xlink="http://www.w3.org/1999/xlink"><defs /><rect fill="#D4A017" height="100%" width="100%" x="0" y="0" /><circle cx="200" cy="130" fill="black" r="45" /><polygon fill="black" points="200,175 260,260 240,270 180,185" /><polygon fill="black" points="200,175 150,260 170,270 210,185" /><polygon fill="black" points="200,260 260,340 240,350 190,275" /><polygon fill="black" points="200,260 150,340 170,350 210,275" /><ellipse cx="130" cy="390" fill="black" rx="60" ry="35" /><circle cx="350" cy="350" fill="none" r="80" stroke="black" stroke-width="35" /><circle cx="240" cy="350" fill="none" r="80" stroke="black" stroke-width="35" /><line stroke="black" stroke-width="35" x1="240" x2="350" y1="350" y2="350" /><line stroke="black" stroke-width="35" x1="350" x2="300" y1="350" y2="260" /><line stroke="black" stroke-width="35" x1="240" x2="300" y1="350" y2="260" /><line stroke="black" stroke-width="35" x1="300" x2="350" y1="260" y2="260" /></svg>